HIERARCHY
ROOT Hips
{
	OFFSET 0.000000 0.000000 0.000000
	CHANNELS 6 Xposition Yposition Zposition Zrotation Yrotation Xrotation 
	JOINT LeftUpLeg_virtual
	{
		OFFSET 0.000000 0.000000 0.000000
		CHANNELS 3 Zrotation Yrotation Xrotation
		JOINT LeftUpLeg
		{
			OFFSET 10.205400 -3.823500 0.155100
			CHANNELS 3 Zrotation Yrotation Xrotation
			JOINT LeftLeg
			{
				OFFSET 0.708757 -12.982077 0.567790
				CHANNELS 3 Zrotation Yrotation Xrotation
				JOINT LeftFoot
				{
					OFFSET -0.708756 -10.717838 -2.184338
					CHANNELS 3 Zrotation Yrotation Xrotation
					JOINT LeftToeBase
					{
						OFFSET 0.108149 -7.191104 7.560241
						CHANNELS 3 Zrotation Yrotation Xrotation
						End Site
						{
							OFFSET 0.000000 0.000000 0.000000
						}
					}
				}
			}
		}
	}
	JOINT RightUpLeg_virtual
	{
		OFFSET 0.000000 0.000000 0.000000
		CHANNELS 3 Zrotation Yrotation Xrotation
		JOINT RightUpLeg
		{
			OFFSET -10.205400 -3.823500 0.005500
			CHANNELS 3 Zrotation Yrotation Xrotation
			JOINT RightLeg
			{
				OFFSET -0.708756 -12.982134 0.610632
				CHANNELS 3 Zrotation Yrotation Xrotation
				JOINT RightFoot
				{
					OFFSET 0.708754 -10.717769 -1.945823
					CHANNELS 3 Zrotation Yrotation Xrotation
					JOINT RightToeBase
					{
						OFFSET -0.108140 -7.191069 7.372968
						CHANNELS 3 Zrotation Yrotation Xrotation
						End Site
						{
							OFFSET 0.000000 0.000000 0.000000
						}
					}
				}
			}
		}
	}
	JOINT Spine_virtual
	{
		OFFSET 0.000000 0.000000 0.000000
		CHANNELS 3 Zrotation Yrotation Xrotation
		JOINT Spine
		{
			OFFSET 0.000000 6.876099 0.125700
			CHANNELS 3 Zrotation Yrotation Xrotation
			JOINT Spine1
			{
				OFFSET 0.000000 8.022060 0.146608
				CHANNELS 3 Zrotation Yrotation Xrotation
				JOINT Spine2
				{
					OFFSET 0.000000 9.168068 0.167552
					CHANNELS 3 Zrotation Yrotation Xrotation
					JOINT Neck_virtual
					{
						OFFSET 0.000000 0.000000 0.000000
						CHANNELS 3 Zrotation Yrotation Xrotation
						JOINT Neck
						{
							OFFSET 0.000000 10.314075 0.188496
							CHANNELS 3 Zrotation Yrotation Xrotation
							JOINT Head
							{
								OFFSET 0.000000 7.643700 -2.377400
								CHANNELS 3 Zrotation Yrotation Xrotation
								End Site
								{
									OFFSET 0.000000 0.000000 0.000000
								}
							}
						}
					}
					JOINT LeftShoulder_virtual
					{
						OFFSET 0.000000 0.000000 0.000000
						CHANNELS 3 Zrotation Yrotation Xrotation
						JOINT LeftShoulder
						{
							OFFSET 4.392200 8.824978 0.174984
							CHANNELS 3 Zrotation Yrotation Xrotation
							JOINT LeftArm
							{
								OFFSET 8.771219 -2.981674 -0.026999
								CHANNELS 3 Zrotation Yrotation Xrotation
								JOINT LeftForeArm
								{
									OFFSET 8.512804 0.000000 -0.000000
									CHANNELS 3 Zrotation Yrotation Xrotation
									JOINT LeftHand
									{
										OFFSET 18.484802 0.000000 -0.000000
										CHANNELS 3 Zrotation Yrotation Xrotation
										End Site
										{
											OFFSET 0.000000 0.000000 0.000000
										}
									}
								}
							}
						}
					}
					JOINT RightShoulder_virtual
					{
						OFFSET 0.000000 0.000000 0.000000
						CHANNELS 3 Zrotation Yrotation Xrotation
						JOINT RightShoulder
						{
							OFFSET -4.392200 8.824993 0.141379
							CHANNELS 3 Zrotation Yrotation Xrotation
							JOINT RightArm
							{
								OFFSET -8.771282 -2.981682 -0.094208
								CHANNELS 3 Zrotation Yrotation Xrotation
								JOINT RightForeArm
								{
									OFFSET -8.494598 0.000000 0.000000
									CHANNELS 3 Zrotation Yrotation Xrotation
									JOINT RightHand
									{
										OFFSET -18.483803 0.000000 0.000001
										CHANNELS 3 Zrotation Yrotation Xrotation
										End Site
										{
											OFFSET 0.000000 0.000000 0.000000
										}
									}
								}
							}
						}
					}
				}
			}
		}
	}
}
MOTION
Frames: 10
Frame Time: 0.033333
-0.350798 34.825024 2.749645 -179.915406 4.350001 -178.992211 2.367151 -5.212746 11.696485 -21.654019 5.860004 -15.613852 16.030051 9.541503 22.430399 4.653220 8.318558 -0.604699 0.000000 0.000000 0.000000 5.194822 -1.174455 10.645388 -13.054251 11.603258 -30.404188 -5.350683 7.137218 42.488179 13.066431 11.033769 4.552954 0.000000 0.000000 0.000000 5.862028 0.322844 -2.287387 2.566582 -11.352473 -9.828684 -1.109078 0.223577 1.219345 0.003144 0.119083 0.106152 -2.737385 4.693236 15.820313 -0.092623 -15.785901 11.535952 0.000000 0.000000 0.000000 -0.857712 5.369392 12.659507 -22.515934 -11.142147 -1.205026 -45.141980 -2.519443 11.031452 9.851120 -48.064560 -13.273012 0.000000 0.000000 0.000000 -6.460839 7.580124 11.405134 27.428013 20.814016 -50.222350 -34.709976 -56.460181 -23.791275 -177.632730 9.008342 -171.910425 0.000000 0.000000 0.000000 
-0.396882 34.811378 2.863793 -179.785223 3.882973 -178.694933 2.282207 -5.140988 11.828137 -22.032218 6.567081 -15.586874 16.057805 9.942371 22.802250 5.148101 8.734010 -0.219085 0.000000 0.000000 0.000000 5.024100 -0.829352 10.376062 -13.436748 11.703866 -30.841893 -5.256654 7.422339 42.672973 13.738135 11.229487 4.790541 0.000000 0.000000 0.000000 5.853759 0.444500 -2.683173 2.620251 -11.423336 -9.821440 -1.126444 0.059988 1.481226 -0.012037 -0.065974 0.117326 -2.627694 4.634940 15.721967 -0.150266 -15.801083 11.408172 0.000000 0.000000 0.000000 -0.867372 5.343610 12.475779 -22.510400 -11.159683 -1.389106 -45.160716 -2.129000 10.732441 9.662560 -47.768144 -12.975515 0.000000 0.000000 0.000000 -6.367546 7.710447 11.061625 27.369102 20.626280 -50.168460 -33.919628 -56.826767 -24.726543 -177.648794 9.290158 -171.922350 0.000000 0.000000 0.000000 
-0.442100 34.784718 2.988028 -179.779089 3.557381 -178.823368 2.332930 -5.348946 11.932984 -22.155242 6.685733 -15.762523 16.054279 10.095574 22.928508 5.047931 8.761027 -0.258620 0.000000 0.000000 0.000000 5.112660 -1.067430 10.548372 -13.607752 11.628570 -31.355619 -5.257323 7.430424 43.074482 13.598752 11.106114 4.770360 0.000000 0.000000 0.000000 5.872607 0.286427 -2.131450 2.621589 -11.230097 -9.902517 -1.038740 0.085339 1.101664 -0.083913 -0.046848 0.225542 -2.567730 4.545184 15.792451 -0.220041 -15.815235 11.442353 0.000000 0.000000 0.000000 -0.755258 5.254074 12.558875 -22.469780 -11.020664 -1.412314 -45.474908 -1.343039 10.540199 9.675573 -47.539701 -12.901403 0.000000 0.000000 0.000000 -6.253722 7.863808 11.396863 27.104043 20.545742 -50.137297 -32.970331 -56.998537 -25.089032 -177.300960 9.830843 -171.834992 0.000000 0.000000 0.000000 
-0.446790 34.763439 3.104679 -179.789458 3.037757 -178.877272 2.440275 -5.590486 12.147410 -22.229324 6.630326 -16.027083 16.031098 10.327599 22.974195 4.842325 8.765038 -0.333027 0.000000 0.000000 0.000000 5.211830 -1.257017 10.878346 -13.814867 11.434590 -32.052350 -5.243675 7.413796 43.447619 13.824247 10.987698 4.886302 0.000000 0.000000 0.000000 5.883407 0.241638 -1.811639 2.497223 -10.986014 -9.758296 -0.968581 0.109152 1.012461 -0.044349 -0.020796 0.138248 -2.437711 4.537280 15.641989 -0.113749 -15.646476 11.262982 0.000000 0.000000 0.000000 -0.630433 5.303583 12.584723 -22.275569 -10.755600 -1.529698 -46.195237 -0.251798 10.307421 9.553269 -47.362362 -12.557583 0.000000 0.000000 0.000000 -6.149884 7.730916 11.281460 26.882067 20.298156 -49.999184 -31.802020 -56.908696 -25.691885 -177.127446 10.412871 -171.562017 0.000000 0.000000 0.000000 
-0.430734 34.762726 3.242918 -179.810795 2.411713 -178.940247 2.495952 -5.731055 12.396889 -22.200896 6.719724 -16.363094 15.956114 10.548458 22.934102 4.529477 8.664367 -0.433555 0.000000 0.000000 0.000000 5.250488 -1.276244 11.304376 -13.898461 11.210582 -32.643622 -5.328232 7.395090 43.577666 14.264216 10.767377 5.096460 0.000000 0.000000 0.000000 5.890048 0.226310 -1.519109 2.372624 -10.837720 -9.638109 -0.884874 0.040814 1.010880 -0.062214 -0.046035 0.098859 -2.379284 4.463616 15.600695 -0.171460 -15.700549 11.129995 0.000000 0.000000 0.000000 -0.576349 5.225699 12.455240 -21.936795 -10.486482 -1.594719 -46.966116 1.234121 9.799029 9.262013 -46.529267 -12.162772 0.000000 0.000000 0.000000 -6.068209 7.758154 11.168305 26.610405 20.203129 -49.826691 -30.811472 -56.966698 -26.486191 -177.050538 10.999596 -171.563888 0.000000 0.000000 0.000000 
-0.419454 34.779278 3.379525 -179.832665 1.797505 -179.084883 2.484144 -5.745814 12.614456 -22.041603 6.792499 -16.682606 15.813932 10.746527 22.867373 4.208768 8.469974 -0.491537 0.000000 0.000000 0.000000 5.142974 -1.158820 11.789505 -13.731702 11.111180 -32.898173 -5.404494 7.374452 43.390553 14.177536 10.521567 5.198977 0.000000 0.000000 0.000000 5.856831 0.343842 -1.178144 2.296954 -10.791149 -9.492611 -0.829071 -0.035375 0.884481 -0.058621 -0.047681 0.186442 -2.342282 4.381667 15.518900 -0.157325 -15.685751 11.164915 0.000000 0.000000 0.000000 -0.500476 5.307929 12.334823 -21.478425 -10.333354 -1.903736 -47.908296 3.059950 8.959135 8.938134 -45.390289 -11.813119 0.000000 0.000000 0.000000 -6.058684 7.750962 11.080606 26.429728 19.908702 -49.608070 -29.862226 -57.063597 -27.287999 -176.847326 11.682137 -171.565596 0.000000 0.000000 0.000000 
-0.414379 34.823406 3.484295 -179.847910 1.308302 -179.136191 2.364372 -5.739626 12.666891 -21.756227 6.889947 -16.888736 15.676795 10.896140 22.736059 3.974031 8.228529 -0.453079 0.000000 0.000000 0.000000 4.896371 -1.031311 12.063516 -13.349604 11.137229 -32.729529 -5.614291 7.394664 42.702110 14.277353 10.264536 5.345924 0.000000 0.000000 0.000000 5.812639 0.145492 -1.094121 2.305930 -10.656530 -9.230654 -0.815698 -0.000758 0.885701 -0.103125 0.063669 0.114162 -2.347711 4.339315 15.391099 -0.107345 -15.612580 11.153024 0.000000 0.000000 0.000000 -0.453262 5.099734 12.239488 -20.818499 -10.236242 -2.047288 -48.919058 5.205953 7.598685 8.688041 -44.048710 -11.577498 0.000000 0.000000 0.000000 -6.098041 7.463647 10.978703 26.510464 19.606265 -49.584810 -29.164508 -56.654835 -27.937251 -176.784530 12.179381 -171.361906 0.000000 0.000000 0.000000 
-0.395654 34.891754 3.555512 -179.928261 0.908379 -179.154359 2.068953 -5.759060 12.566142 -21.360961 7.079986 -16.870939 15.500855 10.893573 22.489503 3.980346 8.019182 -0.249148 0.000000 0.000000 0.000000 4.493963 -0.931832 12.075114 -12.790614 11.330427 -32.047172 -5.946197 7.452697 41.692513 14.329742 10.317580 5.199729 0.000000 0.000000 0.000000 5.657742 0.301874 -1.166348 2.343687 -10.649420 -9.021951 -0.838686 -0.136914 0.883596 -0.003584 0.012469 0.108250 -2.324705 4.149868 15.355845 -0.020674 -15.617489 11.207499 0.000000 0.000000 0.000000 -0.569634 5.000257 12.014414 -19.989165 -10.074467 -2.324271 -49.917649 7.591852 5.956172 8.215163 -42.691746 -11.200091 0.000000 0.000000 0.000000 -6.164478 7.368861 10.761986 26.578395 19.237504 -49.444634 -28.729292 -55.977048 -28.491359 -176.698496 12.957671 -171.255041 0.000000 0.000000 0.000000 
-0.344200 34.989548 3.570369 179.990279 0.577737 -179.182131 1.735622 -5.721299 12.355651 -20.775904 6.866700 -16.540464 15.469460 10.892909 22.163383 4.024808 7.791514 0.188092 0.000000 0.000000 0.000000 4.082275 -0.914291 11.922760 -12.061622 11.707232 -31.001112 -6.311530 7.532578 40.455508 14.479222 10.099622 5.046575 0.000000 0.000000 0.000000 5.439483 0.309547 -1.301568 2.426796 -10.519909 -8.779692 -0.899142 -0.223218 0.868527 -0.003749 -0.034570 0.168502 -2.357157 4.063822 15.206906 0.100521 -15.592497 11.173173 0.000000 0.000000 0.000000 -0.600516 4.948944 11.702921 -19.039938 -9.944728 -2.557054 -51.013047 10.007337 4.132054 7.981253 -41.547204 -11.161282 0.000000 0.000000 0.000000 -6.240725 7.372261 10.468539 26.781455 19.163247 -49.238373 -28.666038 -55.092668 -28.755643 -176.646888 13.786067 -171.313070 0.000000 0.000000 0.000000 
-0.230030 35.119225 3.563227 179.916731 0.257454 -179.184357 1.381499 -5.648824 12.055256 -19.987328 6.359091 -16.005175 15.434520 10.806378 21.712925 4.172731 7.594729 0.781128 0.000000 0.000000 0.000000 3.721267 -0.925570 11.674861 -11.211712 12.202225 -29.828648 -6.651190 7.593029 39.139856 14.330994 9.882866 5.003712 0.000000 0.000000 0.000000 5.133902 0.187944 -1.433835 2.520410 -10.286637 -8.485438 -0.895067 -0.225748 0.869882 -0.064544 -0.035935 0.127361 -2.325376 4.246735 15.013712 0.201106 -15.622864 10.954101 0.000000 0.000000 0.000000 -0.593641 4.952126 11.469774 -17.989774 -9.736558 -2.729011 -52.175542 12.500284 2.574811 7.753885 -40.860920 -11.070296 0.000000 0.000000 0.000000 -6.278393 7.328200 10.147183 27.199157 19.203275 -49.218019 -28.935383 -53.688132 -28.951188 -176.630413 14.593375 -171.441423 0.000000 0.000000 0.000000 
